<svg data-name="Layer 1" xmlns="http://www.w3.org/2000/svg" viewBox="0 0 16 16"><path d="M4.17 14.05a2.41 2.41 0 0 1-2.41-2.4v-.05h-.53a1.48 1.48 0 0 1-.88-1.27c-.08-.46-.24-1.7.19-2.16a1.12 1.12 0 0 0 .22-.71c.09-1.63.26-1.92.32-2 .17-.3 1-1.53 1.43-2.21l-.31-.09v-.29c0-.26.17-.73 1.56-1a60.8 60.8 0 0 1 9-.16A9.46 9.46 0 0 1 16 2.87v.79a11.36 11.36 0 0 0-3.36-1.18 61.36 61.36 0 0 0-8.77.15l-.26.05h.15l-.31.47C2.93 4 1.91 5.5 1.73 5.81a5.24 5.24 0 0 0-.22 1.69 1.83 1.83 0 0 1-.43 1.19 3.44 3.44 0 0 0 0 1.56.76.76 0 0 0 .39.6h.43a2.41 2.41 0 0 1 4.63.31H16v.75H6.56a2.41 2.41 0 0 1-2.39 2.14Zm0-4.06a1.66 1.66 0 1 0 1.65 1.66A1.66 1.66 0 0 0 4.17 10ZM8 15.65a.25.25 0 0 1-.25-.25v-1a.25.25 0 0 1 .5 0v1a.25.25 0 0 1-.25.25Zm0-2a.25.25 0 0 1-.25-.25v-1a.25.25 0 0 1 .5 0v1a.25.25 0 0 1-.25.25Zm5 2a.25.25 0 0 1-.25-.25v-1a.25.25 0 0 1 .5 0v1a.25.25 0 0 1-.25.25Zm0-2a.25.25 0 0 1-.25-.25v-1a.25.25 0 0 1 .5 0v1a.25.25 0 0 1-.25.25Z" fill="#56586a"/></svg>