<svg data-name="Layer 1" xmlns="http://www.w3.org/2000/svg" viewBox="0 0 16 16"><path data-name="Seating Capacity" d="M8.7 14.53a23 23 0 0 1-4.1-.46c-.74-.12-1.49-.49-2-2.34a28.71 28.71 0 0 1-1.31-6.48.5.5 0 0 1 .46-.54.51.51 0 0 1 .53.46 27.92 27.92 0 0 0 1.22 6.21C4 13 4.45 13 4.76 13.09a18.52 18.52 0 0 0 5.41.37.5.5 0 1 1 .09 1 14.43 14.43 0 0 1-1.56.07Zm5.63 1.09a1.44 1.44 0 0 0 .38-1.19v-.54c-.08-1.79-.13-3-1.85-3.7A9 9 0 0 0 10 9.65a4.5 4.5 0 0 1-2.2-.52c-.81-.61-1-1.27-1.33-2.6l-.27-1a1.43 1.43 0 0 0-1-1.08 2.21 2.21 0 1 0-.79.08 1.47 1.47 0 0 0-.67.68c-.36.79-.31 3.23 1.16 5.47A3.28 3.28 0 0 0 6 11.79a7.93 7.93 0 0 0 3.84.75 9.55 9.55 0 0 1 1.26.07c.79.13.93.73 1.07 1.7.09.64.2 1.45 1 1.56a2.13 2.13 0 0 0 .37 0 1.2 1.2 0 0 0 .79-.25ZM5 5.39c.09 0 .21.13.29.39.1.37.19.7.26 1 .37 1.4.61 2.33 1.69 3.15a5.17 5.17 0 0 0 2.76.71 8.14 8.14 0 0 1 2.5.47c1.09.46 1.16 1 1.24 2.82v.55a.72.72 0 0 1-.05.4.58.58 0 0 1-.32 0 2.5 2.5 0 0 1-.16-.74c-.13-.85-.33-2.28-1.9-2.54a10.34 10.34 0 0 0-1.41-.09 7 7 0 0 1-3.39-.64 2.28 2.28 0 0 1-.74-.77 6.12 6.12 0 0 1-1.11-4.45c.09-.18.2-.26.28-.26Zm.87-3.08A1.21 1.21 0 1 1 4.62 1.1a1.2 1.2 0 0 1 1.2 1.21Z" fill="#56586a"/></svg>