<svg data-name="Layer 1" xmlns="http://www.w3.org/2000/svg" viewBox="0 0 16 16"><path d="M14.63 15.56H1.36A1.26 1.26 0 0 1 .1 14.29V5.88a1.26 1.26 0 0 1 1.26-1.26h1L2.3 3.55a.5.5 0 0 1-.5-.5V.94a.51.51 0 0 1 .5-.5h3.81a.5.5 0 0 1 .5.5v2.11a.5.5 0 0 1-.5.5h-.06v1.07h8.59a1.26 1.26 0 0 1 1.26 1.27v8.4a1.27 1.27 0 0 1-1.27 1.27ZM1.1 9.32v5a.27.27 0 0 0 .26.27h13.27a.28.28 0 0 0 .27-.27V8.89l-.36-.1a1.56 1.56 0 0 0-1 0l-1.64.61a3.45 3.45 0 0 1-3.36-.06c-.82-.59-2.6-.84-3.17-.44a3.81 3.81 0 0 1-4.27.42Zm5.19-1.61a5.35 5.35 0 0 1 2.83.81 2.5 2.5 0 0 0 2.44-.06l1.64-.58a2.64 2.64 0 0 1 1.62 0h.08v-2a.27.27 0 0 0-.26-.27H5.55a.5.5 0 0 1-.5-.5V3.55h-1.7v1.57a.5.5 0 0 1-.5.5H1.36a.26.26 0 0 0-.26.26v2.19a.3.3 0 0 1 .08.08c.07.07 1.42 1.44 3.62-.07a2.62 2.62 0 0 1 1.49-.37ZM2.8 2.55h2.81V1.44H2.8Z" fill="#56586a"/></svg>