<svg data-name="Layer 1" xmlns="http://www.w3.org/2000/svg" viewBox="0 0 16 16"><path d="M13 15.61h-1.64a.35.35 0 0 1-.25-.1.65.65 0 0 1-.11-.21l-.1-.27a.5.5 0 0 1 0-.12v-.37H5.37v.37a.25.25 0 0 1 0 .12l-.07.22a.94.94 0 0 1-.22.29.39.39 0 0 1-.23.07H3.09a.76.76 0 0 1-.83-.61v-4a.39.39 0 0 1 .11-.27.39.39 0 0 0 .13-.21h-.2a.38.38 0 0 1-.33-.2 1.55 1.55 0 0 1-.2-.74A1.4 1.4 0 0 1 1.89 9l.32-.46.08-.08a1.22 1.22 0 0 1 .77-.18h.06a10.86 10.86 0 0 1 .82-1.94 1.93 1.93 0 0 1 .27-.39l.06-.05h.13A6.48 6.48 0 0 1 6 5.35a18.74 18.74 0 0 1 4.18 0 5.47 5.47 0 0 1 1.55.42.6.6 0 0 1 .13.09 1.71 1.71 0 0 1 .31.44A10.92 10.92 0 0 1 13 8.24a1.08 1.08 0 0 1 .7.2l.07.08.26.39a1.75 1.75 0 0 1 .15.68 1.5 1.5 0 0 1-.18.71.37.37 0 0 1-.33.2h-.16a.57.57 0 0 0 .12.23.35.35 0 0 1 .1.25v4a.73.73 0 0 1-.73.63Zm-1.41-.75H13V11.1a1.38 1.38 0 0 1-.24-.65v-.35a.37.37 0 0 1 .37-.36h.3a1.1 1.1 0 0 0 0-.18.73.73 0 0 0-.07-.31L13.24 9A.76.76 0 0 0 13 9h-.24a.37.37 0 0 1-.44-.26 11.34 11.34 0 0 0-.78-2.08 1.83 1.83 0 0 0-.14-.24 5.16 5.16 0 0 0-1.29-.33C9.46 6.05 8.8 6 8.2 6h-.61c-.46 0-.94 0-1.45.08a6 6 0 0 0-1.41.34 1.77 1.77 0 0 0-.14.22 10.11 10.11 0 0 0-.85 2.08.37.37 0 0 1-.41.28H3a.54.54 0 0 0-.26 0l-.24.32a.58.58 0 0 0 0 .19.6.6 0 0 0 0 .22h.34a.37.37 0 0 1 .37.36v.3a1.25 1.25 0 0 1-.26.72v3.74h1.67v-.7a.36.36 0 0 1 .11-.26.39.39 0 0 1 .27-.11h6.21a.37.37 0 0 1 .37.37Zm.33-2.17H10.16a.55.55 0 0 1-.29-.19.41.41 0 0 1-.09-.12c-.17-.37 0-.72.46-1.07a4.64 4.64 0 0 1 .87-.47 1.32 1.32 0 0 1 1.07-.07.79.79 0 0 1 .4.51l.06.55a1 1 0 0 1-.29.72.76.76 0 0 1-.32.17Zm-1.46-.6Zm.13-.15h1.25s.05-.08.06-.15l-.05-.42a1.7 1.7 0 0 0-.46.12 3.26 3.26 0 0 0-.71.38Zm-4.75.75H4.19a.67.67 0 0 1-.33-.18.88.88 0 0 1-.29-.64l.05-.56a.82.82 0 0 1 .38-.59 1.3 1.3 0 0 1 1.06.07 4.39 4.39 0 0 1 .85.46c.49.36.65.71.5 1.05l-.1.12a.52.52 0 0 1-.28.19h-.11Zm.27-.54Zm-.35-.06Zm-1.33-.7h-.06l-.06.46s0 .05.05.07h1.26l-.1-.08a3.36 3.36 0 0 0-.7-.37 1 1 0 0 0-.39-.08Zm3.48-1.46a14.08 14.08 0 0 1-3.8-.49.39.39 0 0 1-.27-.44c.06-.24.13-.5.23-.79a3.92 3.92 0 0 1 .68-1.35.31.31 0 0 1 .15-.1 7.29 7.29 0 0 1 1.72-.36 12 12 0 0 1 4.32.34.38.38 0 0 1 .23.18l.37.61A4.27 4.27 0 0 1 12 9.1a.37.37 0 0 1-.27.39 13.8 13.8 0 0 1-2.38.38c-.48.04-.96.06-1.44.06ZM4.67 8.81a14.36 14.36 0 0 0 4.64.31 14.07 14.07 0 0 0 1.92-.27 3.62 3.62 0 0 0-.35-1l-.27-.47a11.36 11.36 0 0 0-3.91-.25 7.38 7.38 0 0 0-1.44.29 3.53 3.53 0 0 0-.48 1c-.04.14-.08.27-.11.39ZM1.39 3.92l-.34.68a.07.07 0 0 1-.05 0l-.76.11A.12.12 0 0 0 .18 5l.48.47.06.06a.06.06 0 0 1 0 .07l-.09.52v.23a.13.13 0 0 0 .18.13l.68-.36h.06l.68.36a.12.12 0 0 0 .17-.13l-.12-.75a.06.06 0 0 1 0-.07L2.82 5a.12.12 0 0 0-.06-.21l-.55-.08L2 4.64a.07.07 0 0 1 0-.04l-.14-.28-.2-.4a.12.12 0 0 0-.27 0Zm2.44-2.37-.33.69h-.06l-.75.11a.12.12 0 0 0-.07.2l.48.48.06.06a.07.07 0 0 1 0 .06l-.09.52v.23a.12.12 0 0 0 .17.13l.68-.36H4l.67.36a.12.12 0 0 0 .18-.13l-.15-.71v-.06l.55-.54a.12.12 0 0 0-.07-.2l-.54-.08h-.22a.1.1 0 0 1-.05 0L4.25 2l-.2-.41a.12.12 0 0 0-.22-.04Zm10.56 2.37-.34.68a.07.07 0 0 1-.05 0l-.76.11a.12.12 0 0 0-.06.21l.48.47.06.06a.06.06 0 0 1 0 .07l-.09.52v.23a.13.13 0 0 0 .18.13l.68-.36h.06l.68.36a.12.12 0 0 0 .17-.13l-.12-.75a.06.06 0 0 1 0-.07l.54-.45a.12.12 0 0 0-.06-.21l-.55-.08H15a.07.07 0 0 1-.05 0l-.14-.28-.2-.4a.12.12 0 0 0-.22-.11Zm-2.85-2.46-.34.69-.76.11a.11.11 0 0 0-.06.2l.48.48.06.06v.06l-.08.52v.23a.12.12 0 0 0 .17.13l.68-.36a.06.06 0 0 1 .06 0l.68.36a.12.12 0 0 0 .18-.13l-.13-.75V3l.52-.5a.11.11 0 0 0-.06-.2l-.55-.08h-.21a.1.1 0 0 1-.05 0L12 1.87l-.2-.41a.12.12 0 0 0-.26 0ZM7.77.83l-.33.69a.09.09 0 0 1-.06 0l-.75.11a.12.12 0 0 0-.07.2l.49.48h.06a.19.19 0 0 1 0 .07L7 3v.23a.12.12 0 0 0 .17.13L7.85 3a.09.09 0 0 1 .07 0l.67.36a.12.12 0 0 0 .18-.13l-.13-.75a.1.1 0 0 1 0-.07l.55-.53a.12.12 0 0 0-.07-.2l-.52-.09h-.22a.1.1 0 0 1-.05 0l-.14-.29L8 .83a.12.12 0 0 0-.23 0Z" fill="#56586a"/></svg>