<svg data-name="Layer 1" xmlns="http://www.w3.org/2000/svg" viewBox="0 0 16 16"><path data-name="dimensions" d="M14.16 16a.52.52 0 0 1-.35-.14.5.5 0 0 1 0-.71l.56-.57H4.68l.56.57a.5.5 0 0 1 0 .71.49.49 0 0 1-.7 0l-1.26-1.3a.66.66 0 0 1-.2-.49.7.7 0 0 1 .24-.49l1.24-1.24a.5.5 0 0 1 .7 0 .5.5 0 0 1 0 .71l-.53.53h9.59l-.54-.53a.5.5 0 0 1 0-.71.5.5 0 0 1 .7 0l1.27 1.27a.66.66 0 0 1 0 1l-1.25 1.28a.49.49 0 0 1-.34.11ZM1.94 12.88a.7.7 0 0 1-.49-.24L.19 11.4a.48.48 0 0 1 0-.7.48.48 0 0 1 .7 0l.53.53V1.65l-.53.53a.48.48 0 0 1-.7 0 .48.48 0 0 1 0-.7L1.45.21A.66.66 0 0 1 1.91 0a.64.64 0 0 1 .51.2l1.27 1.25a.49.49 0 0 1 0 .7.48.48 0 0 1-.7 0l-.57-.55v9.68l.58-.56a.5.5 0 1 1 .69.71l-1.28 1.26a.67.67 0 0 1-.47.19Z" fill="#56586a"/></svg>