<svg data-name="Layer 1" xmlns="http://www.w3.org/2000/svg" viewBox="0 0 16 16"><path data-name="Fuel" d="M15.52 15.74a.48.48 0 0 1-.37-.17L14 14.18l-.08.05a.75.75 0 0 1-1.06-.1l-1.63-2-2.74 2.19c-.19.16-.62.27-1-.25 0 0-2.87-3.56-2.95-3.75a2.11 2.11 0 0 1 .6-2.55l1.3-1.31-2.31-2.77A.22.22 0 0 0 4 3.61l-2.9-.56a1.39 1.39 0 0 1-1-.75 1.41 1.41 0 0 1 0-1.14A1.46 1.46 0 0 1 .89.35a1.32 1.32 0 0 1 .68-.07L5 .93a1.21 1.21 0 0 1 .7.4L9 5.13v.06l3.68 4.48.61.75 1.63 2a.76.76 0 0 1-.11 1.06l-.12.1 1.16 1.37a.48.48 0 0 1-.05.68.47.47 0 0 1-.28.11ZM7.31 6.9a.27.27 0 0 1-.07.1l-1.5 1.5a1.18 1.18 0 0 0-.37 1.45l2.75 3.45 2.47-2L12 10.28 8.43 6ZM12 11.52l1.5 1.83.61-.49L12.57 11ZM1.35 1.23h-.08a.45.45 0 0 0-.27.29.48.48 0 0 0 0 .37.39.39 0 0 0 .27.21l2.9.56a1.27 1.27 0 0 1 .7.42l2.24 2.73.69-.55L5 2a.29.29 0 0 0-.14-.08L1.4 1.23Z" fill="#56586a"/></svg>