<?xml version="1.0" encoding="UTF-8"?>
<svg id="Layer_1" data-name="Layer 1" xmlns="http://www.w3.org/2000/svg" viewBox="0 0 16 16">
  <defs>
    <style>
      .cls-1 {
        fill: #56586a;
      }
    </style>
  </defs>
  <path id="Clock" class="cls-1" d="m8,15.9C3.64,15.9.1,12.36.1,8S3.64.1,8,.1s7.9,3.54,7.9,7.9-3.54,7.9-7.9,7.9Zm0-14.8C4.2,1.1,1.1,4.2,1.1,8s3.1,6.9,6.9,6.9,6.9-3.1,6.9-6.9S11.8,1.1,8,1.1Zm3.54,10.94c-.12,0-.24-.04-.34-.13l-3.86-3.54c-.1-.09-.16-.23-.16-.37v-3.54c0-.28.22-.5.5-.5s.5.22.5.5v3.32l3.7,3.39c.2.19.22.5.03.71-.1.11-.23.16-.37.16Z"/>
</svg>