<svg data-name="Layer 1" xmlns="http://www.w3.org/2000/svg" viewBox="0 0 16 16"><path data-name="Petrol" d="M13.88 8.2h-.27a1 1 0 0 1-1-1V4.58l.5 1.1v1.5a.52.52 0 0 0 .53.52h.28ZM10.68 7H4.59a.26.26 0 0 1-.26-.26V2.81a1.3 1.3 0 0 1 1.3-1.3h4a1.3 1.3 0 0 1 1.3 1.3v3.94a.26.26 0 0 1-.25.25Zm-5.85-.5h5.61V2.81a.8.8 0 0 0-.8-.8h-4a.8.8 0 0 0-.8.8Zm7.62 9.42h-10a1.22 1.22 0 0 1 0-2.44h.26V2.08a2 2 0 0 1 2-2h5.64a2 2 0 0 1 2 2v.07l2.29 5a.58.58 0 0 1 0 .18v4.23a.88.88 0 1 1-1.75 0v-.88a.45.45 0 0 0-.45-.45h-.13v3.25a1.22 1.22 0 0 1 0 2.44Zm-10-1.59a.38.38 0 0 0-.37.37.37.37 0 0 0 .37.37h10a.36.36 0 0 0 .37-.37.37.37 0 0 0-.37-.37h-10Zm1.11-.84h8V2.08A1.16 1.16 0 0 0 10.39.92H4.75a1.16 1.16 0 0 0-1.16 1.16Zm8.82-4.11h.13a1.3 1.3 0 0 1 1.3 1.3v.88l.05-4.14-1.45-3.23Z" fill="#56586a"/></svg>