<svg data-name="Layer 1" xmlns="http://www.w3.org/2000/svg" viewBox="0 0 16 16"><path data-name="on-road price" d="M12.88 16H3.12a1 1 0 0 1-1-1v-2.12h.5a.75.75 0 1 0 0-1.5h-.5V1a1 1 0 0 1 1-1h9.76a1 1 0 0 1 1 1v10.38h-.5a.75.75 0 1 0 0 1.5h.5V15a1 1 0 0 1-1 1Zm-9.76-2.2V15h9.76v-1.2a1.74 1.74 0 0 1 0-3.35V1H3.12v9.45a1.74 1.74 0 0 1 0 3.35Zm8.27-1.42h-.67v-.75h.67Zm-1.67 0h-1v-.75h1Zm-2 0h-1v-.75h1Zm-2 0h-1v-.75h1Zm3.66-2.76a.37.37 0 0 0 0-.53l-2.62-2.6h1a.78.78 0 0 0 .77-.77V5H10a.37.37 0 0 0 .38-.37.38.38 0 0 0-.38-.37H8.51v-.62H10a.38.38 0 1 0 0-.75H5.88a.38.38 0 1 0 0 .75h1.88v.6H5.88a.38.38 0 0 0-.38.38.37.37 0 0 0 .38.38h1.87v.73H6a.45.45 0 0 0-.38.27.53.53 0 0 0 0 .42l3.22 3.2a.39.39 0 0 0 .27.11.38.38 0 0 0 .27-.11Z" fill="#56586a"/></svg>